<?xml version="1.0" encoding="UTF-8"?>
<svg xmlns="http://www.w3.org/2000/svg" width="512" height="512" viewBox="0 0 512 512" fill="none">
  <path d="M 266 327.14 L 250 327.42 L 237 326.28 L 222 323.37 L 209 319.36 L 197 314.32 L 184 307.18 L 174 300.36 L 164 292.03 L 154.97 283 L 146.63 273 L 139.82 263 L 132.67 250 L 127.63 238 L 123.62 225 L 120.71 210 L 119.64 199 L 119.64 184 L 120.69 173 L 123.62 158 L 127.63 145 L 132.64 133 L 139.72 120 L 145.82 111 L 154.81 100 L 164 90.83 L 175 81.82 L 184 75.73 L 197 68.66 L 209 63.62 L 222 59.62 L 237 56.67 L 247 55.67 L 262 55.58 L 274 56.69 L 289 59.63 L 302 63.63 L 314 68.65 L 327 75.73 L 336 81.81 L 347 90.81 L 355.27 99 L 365.19 111 L 371.26 120 L 378.34 133 L 383.37 145 L 387.36 158 L 390.3 173 L 391.3 183 L 391.36 199 L 390.31 210 L 387.37 225 L 383.36 238 L 378.33 250 L 371.25 263 L 364.4 273 L 356.14 283 L 347 292.16 L 336 301.14 L 327 307.25 L 314 314.34 L 293 322.32 L 280 325.34 Z M 266.23 311 L 279 309.25 L 291 306.18 L 304 301.33 L 312 297.42 L 329 286.39 L 337 279.54 L 346.31 270 L 359.18 252 L 365.33 240 L 369.2 230 L 374.28 209 L 375.38 198 L 375.26 183 L 374.28 174 L 371.35 160 L 367.39 148 L 362.44 137 L 351.19 119 L 345.43 112 L 334 100.67 L 325 93.62 L 314 86.65 L 294 77.77 L 273 72.7 L 261 71.58 L 247 71.74 L 237 72.85 L 224 75.62 L 214 78.79 L 203 83.54 L 192 89.61 L 183 95.82 L 175 102.51 L 164.71 113 L 157.62 122 L 150.64 133 L 144.76 145 L 140.75 156 L 136.69 174 L 135.61 185 L 135.72 200 L 136.7 209 L 139.63 223 L 143.6 235 L 148.56 246 L 153.62 255 L 160.6 265 L 169 274.62 L 178 283.17 L 186 289.38 L 197 296.35 L 209 302.18 L 220 306.17 L 232 309.25 L 246 311.17 Z M 290 231.11 L 286 231.41 L 282 229.26 L 249.74 197 L 247.59 193 L 247.53 111 L 248.84 107 L 253 103.88 L 257 103.6 L 260 104.86 L 262.13 107 L 263.4 110 L 263.53 188 L 294.06 219 L 295.41 222 L 295.1 226 L 293.24 229 Z M 405 455.14 L 396 455.4 L 390 454.41 L 384 452.42 L 378 449.29 L 371 443.53 L 365.69 437 L 362.58 431 L 360 423.54 L 295 423.54 L 292.41 431 L 289.31 437 L 281 446.39 L 275 450.47 L 269 453.26 L 261 455.19 L 255 455.5 L 250 455.19 L 242 453.27 L 236 450.47 L 230 446.38 L 221.68 437 L 218.58 431 L 216 423.54 L 152 423.5 L 150.54 424 L 148.41 431 L 145.31 437 L 141.48 442 L 136 447.19 L 129 451.48 L 122 454.19 L 115 455.42 L 107 455.34 L 96 452.43 L 86 446.38 L 77.68 437 L 74.58 431 L 72 423.54 L 45 423.1 L 40.86 420 L 39.6 417 L 39.6 414 L 42 409.66 L 46 407.6 L 72 407.46 L 74.57 400 L 77.67 394 L 86 384.6 L 96 378.56 L 107 375.66 L 115 375.57 L 122 376.79 L 129 379.51 L 136 383.79 L 141.48 389 L 145.32 394 L 148.42 400 L 150.54 407 L 152 407.5 L 216 407.46 L 218.57 400 L 221.67 394 L 230 384.6 L 236 380.52 L 242 377.72 L 250 375.8 L 255 375.5 L 261 375.8 L 269 377.72 L 280 383.79 L 285.48 389 L 289.32 394 L 292.42 400 L 295 407.46 L 360 407.46 L 362.59 400 L 365.69 394 L 371.46 387 L 378 381.7 L 384 378.59 L 390 376.6 L 396 375.59 L 404 375.69 L 410 376.86 L 417 379.53 L 424 383.83 L 428.51 388 L 433.28 394 L 436.4 400 L 440 412.82 L 442 409.66 L 446 407.6 L 464 407.52 L 466 407.89 L 469.34 410 L 471.47 415 L 470.12 420 L 468 422.12 L 465 423.4 L 446 423.4 L 442 421.33 L 440 418.17 L 436.41 431 L 433.27 437 L 428.51 443 L 424 447.14 L 417 451.47 Z M 116.28 439 L 125 435.39 L 131.39 429 L 135.11 420 L 135.31 412 L 134.35 408 L 131.38 402 L 125 395.65 L 119 392.69 L 115 391.73 L 107 391.9 L 98 395.64 L 91.64 402 L 87.89 411 L 87.72 419 L 88.69 423 L 91.65 429 L 98 435.38 L 104 438.35 L 108 439.3 Z M 260.28 439 L 269 435.39 L 275.39 429 L 279.11 420 L 279.31 412 L 278.35 408 L 275.38 402 L 269 395.65 L 263 392.69 L 259 391.73 L 251 391.9 L 242 395.64 L 235.64 402 L 231.89 411 L 231.72 419 L 232.69 423 L 235.65 429 L 242 435.38 L 248 438.35 L 252 439.3 Z M 404.28 439 L 413 435.39 L 419.39 429 L 423.11 420 L 423.31 412 L 422.35 408 L 419.38 402 L 413 395.65 L 407 392.69 L 403 391.73 L 395 391.9 L 386 395.64 L 379.64 402 L 375.89 411 L 375.72 419 L 376.69 423 L 379.65 429 L 386 435.38 L 392 438.35 L 396 439.3 Z" fill="#000" fill-rule="evenodd" clip-rule="evenodd"/>
</svg>
